HIERARCHY
ROOT hip
{
	OFFSET 0.000000 0.000000 0.000000 
	CHANNELS 6 Xposition Yposition Zposition Xrotation Zrotation Yrotation
	JOINT abdomen
	{
		OFFSET 0.000000 3.402643 0.000000 
		CHANNELS 3 Xrotation Zrotation Yrotation
		JOINT chest
		{
			OFFSET 0.000000 8.438565 -0.680529 
			CHANNELS 3 Xrotation Zrotation Yrotation
			JOINT neckDummy
			{
				OFFSET 0.000000 8.059053 0.760605 
				CHANNELS 3 Xrotation Yrotation Zrotation
				JOINT neck
				{
					OFFSET 0.000000 10.207942 -0.272212 
					CHANNELS 3 Xrotation Zrotation Yrotation
					JOINT head
					{
						OFFSET 0.000000 3.130431 0.000000 
						CHANNELS 3 Xrotation Zrotation Yrotation
						End Site
						{
							OFFSET 0.000000 3.130435 0.000000 
						}
					}
				}
			}
			JOINT lCollar
			{
				OFFSET 3.470700 6.669187 -0.816635 
				CHANNELS 3 Yrotation Zrotation Xrotation
				JOINT lShldr
				{
					OFFSET 3.198488 0.000000 0.000000 
					CHANNELS 3 Zrotation Yrotation Xrotation
					JOINT lForeArm
					{
						OFFSET 10.139888 0.000000 0.000000 
						CHANNELS 3 Yrotation Zrotation Xrotation
						JOINT lHand
						{
							OFFSET 8.370511 0.000000 0.000000 
							CHANNELS 3 Zrotation Yrotation Xrotation
							End Site
							{
								OFFSET 4.083176 0.000000 0.000000 
							}
						}
					}
				}
			}
			JOINT rCollar
			{
				OFFSET -3.470700 6.669187 -0.816635 
				CHANNELS 3 Yrotation Zrotation Xrotation
				JOINT rShldr
				{
					OFFSET -3.198488 0.000000 0.000000 
					CHANNELS 3 Zrotation Yrotation Xrotation
					JOINT rForeArm
					{
						OFFSET -10.139888 0.000000 0.000000 
						CHANNELS 3 Yrotation Zrotation Xrotation
						JOINT rHand
						{
							OFFSET -8.370511 0.000000 0.000000 
							CHANNELS 3 Zrotation Yrotation Xrotation
							End Site
							{
								OFFSET -4.083176 0.000000 0.000000 
							}
						}
					}
				}
			}
		}
	}
	JOINT lThigh
	{
		OFFSET 5.308129 -1.633274 1.361059 
		CHANNELS 3 Xrotation Zrotation Yrotation
		JOINT lShin
		{
			OFFSET -2.041588 -20.007561 0.000000 
			CHANNELS 3 Xrotation Zrotation Yrotation
			JOINT lFoot
			{
				OFFSET 0.000000 -19.190928 -1.224953 
				CHANNELS 3 Xrotation Yrotation Zrotation
				End Site
				{
					OFFSET 0.000000 -2.449906 4.627600 
				}
			}
		}
	}
	JOINT rThigh
	{
		OFFSET -5.308129 -1.633274 1.361059 
		CHANNELS 3 Xrotation Zrotation Yrotation
		JOINT rShin
		{
			OFFSET 2.041588 -20.007561 0.000000 
			CHANNELS 3 Xrotation Zrotation Yrotation
			JOINT rFoot
			{
				OFFSET 0.000000 -19.190928 -1.224953 
				CHANNELS 3 Xrotation Yrotation Zrotation
				End Site
				{
					OFFSET 0.000000 -2.449906 4.627600 
				}
			}
		}
	}
}
MOTION
Frames: 15
Frame Time: 0.011111
0.564255 44.815342 -7.556671 -10.932156 0.767700 -6.454499 35.440182 -0.840891 -3.443521 -24.350168 1.029687 -0.903946 0.000000 0.000000 0.000000 -13.803759 -4.381117 0.517960 9.441622 10.303675 0.496632 2.424333 -4.683778 1.783845 33.673649 -63.443474 -43.497498 -87.728874 3.652834 33.333439 8.524705 12.647240 -21.136122 -2.738486 -1.140572 2.095526 -35.845272 50.595387 -49.287811 88.157333 -4.145704 33.752258 -8.534408 -12.637552 39.329937 -6.845069 18.495073 -4.310476 58.742188 -2.876381 -8.050826 -30.864180 -9.846542 -7.482766 -5.103530 -19.847433 21.160006 52.719986 3.498053 7.466140 -38.992741 0.932114 0.717098 
0.666171 45.023335 -7.486845 -10.890520 1.064950 -6.689267 34.833015 -1.076880 -3.319753 -24.311775 1.200792 -0.859327 0.000000 0.000000 0.000000 -14.826227 -4.827436 0.940656 11.867786 10.936502 1.355363 2.424333 -4.683778 1.783845 31.526039 -63.589920 -40.443264 -87.740959 3.669405 33.342533 8.524705 12.647240 -21.526745 -2.738486 -1.140572 2.095526 -35.019238 51.022057 -47.752457 87.973167 -3.942610 33.580498 -8.534408 -12.637552 39.134624 -5.894550 17.951036 -3.824770 57.500065 -3.004022 -7.931741 -30.860294 -9.490264 -7.256243 -4.803476 -20.574793 21.027040 51.611027 3.615225 7.360524 -38.194431 1.117677 0.993614 
0.772247 45.301151 -7.415533 -10.691261 1.201942 -6.975225 34.028168 -1.117884 -3.044308 -24.233727 1.207827 -0.789581 0.000000 0.000000 0.000000 -15.163621 -4.748947 1.091240 13.031446 10.716887 1.734798 2.424333 -4.683778 1.783845 29.219376 -63.524925 -37.225273 -87.701538 3.620458 33.304920 8.524705 12.647240 -21.692759 -2.738486 -1.140572 2.095526 -33.814606 51.435226 -46.077709 87.775116 -3.710643 33.391178 -8.534408 -12.637552 38.978374 -5.113167 17.578388 -3.249433 56.168995 -3.140872 -7.806796 -30.663321 -8.847808 -6.841327 -4.604992 -21.047359 20.973894 50.404068 3.732736 7.225893 -37.024426 0.926474 1.068900 
0.882484 45.653847 -7.336792 -10.351094 1.000003 -7.370340 33.111656 -0.778155 -2.448954 -24.096645 1.091344 -0.678801 0.000000 0.000000 0.000000 -15.332891 -4.591280 1.190634 13.722514 10.389166 2.000687 2.424333 -4.683778 1.783845 26.767950 -63.267338 -33.970398 -87.621346 3.521583 33.210346 8.524705 12.647240 -21.780653 -2.738486 -1.140572 2.095526 -32.428677 51.836128 -44.432564 87.566765 -3.457062 33.163818 -8.534408 -12.637552 38.734234 -4.489318 17.598692 -2.553879 54.816883 -3.295496 -7.686700 -30.120424 -8.367503 -6.511101 -4.508053 -21.068913 21.152502 49.205662 3.849960 7.099175 -35.640907 0.645964 1.145866 
0.979943 46.065968 -7.262510 -9.931056 0.499930 -7.801370 32.223454 -0.133668 -1.701534 -24.057121 0.935249 -0.557281 0.000000 0.000000 0.000000 -15.611466 -4.466045 1.279503 14.550469 10.101439 2.237988 2.424333 -4.683778 1.783845 23.998386 -62.782860 -30.580873 -87.524452 3.397008 33.106907 8.524705 12.647240 -21.917370 -2.738486 -1.140572 2.095526 -30.804539 52.168182 -42.611149 87.338722 -3.152676 32.891403 -8.534408 -12.637552 38.577984 -4.030936 17.999865 -1.801931 53.445091 -3.451129 -7.532955 -29.173574 -7.988936 -6.239744 -4.419048 -20.656605 21.585108 47.977154 3.957486 6.973488 -33.992374 0.387884 1.257380 
1.075025 46.541084 -7.187929 -9.524492 0.130051 -8.142306 31.407990 0.403908 -1.060314 -24.144596 0.786105 -0.457981 0.000000 0.000000 0.000000 -16.014112 -4.179382 1.325613 15.506107 9.633481 2.401178 2.424333 -4.683778 1.783845 21.076052 -62.144249 -27.152088 -87.389870 3.220117 32.946880 8.524705 12.647240 -22.044325 -2.738486 -1.140572 2.095526 -28.824430 52.279282 -40.520496 87.132050 -2.856806 32.610180 -8.534408 -12.637552 38.636581 -3.524193 18.247637 -1.185130 52.012978 -3.587953 -7.401109 -28.016762 -7.448225 -5.889688 -4.266261 -20.350393 22.029741 46.757275 4.057931 6.863210 -32.257862 -0.005143 1.298280 
1.171890 47.043835 -7.123155 -9.130316 0.008887 -8.439175 30.592529 0.727757 -0.638878 -24.115250 0.762871 -0.387007 0.000000 0.000000 0.000000 -16.336205 -3.916974 1.458127 16.022715 9.183712 2.708044 2.424333 -4.683778 1.783845 18.070114 -61.388226 -23.938442 -87.223198 2.987595 32.731171 8.524705 12.647240 -21.868544 -2.738486 -1.140572 2.095526 -26.790178 52.293648 -38.459072 86.946434 -2.570791 32.329700 -8.534408 -12.637552 38.792828 -2.986084 18.183723 -0.763252 50.510532 -3.744001 -7.259254 -26.667797 -6.746273 -5.487525 -4.207584 -20.271500 22.562250 45.536121 4.182410 6.722114 -30.414419 -0.740051 1.186250 
1.253007 47.565300 -7.080071 -8.707337 -0.047331 -8.756656 29.815769 0.941603 -0.321424 -24.007938 0.797592 -0.329576 0.000000 0.000000 0.000000 -16.530737 -3.686666 1.614954 16.001736 8.854628 3.029790 2.424333 -4.683778 1.783845 15.020732 -60.572018 -21.025795 -87.050201 2.732376 32.487778 8.524705 12.647240 -21.819712 -2.738486 -1.140572 2.095526 -24.602777 52.312901 -36.523277 86.777145 -2.283803 32.011024 -8.534408 -12.637552 38.919781 -2.489202 18.083433 -0.514877 48.889130 -3.892665 -7.110389 -25.021732 -6.043040 -5.108074 -4.256579 -20.174292 23.235023 44.324749 4.289903 6.573106 -28.312819 -1.503926 1.121028 
1.324320 48.129551 -7.036987 -8.422754 0.033366 -8.969599 29.193100 0.987970 -0.172866 -23.978863 0.868277 -0.305526 0.000000 0.000000 0.000000 -17.021544 -3.435528 1.692524 16.508114 8.541067 3.231843 2.424333 -4.683778 1.783845 11.858847 -59.697067 -18.170527 -86.870453 2.441691 32.188744 8.524705 12.647240 -22.054089 -2.738486 -1.140572 2.095526 -22.180336 52.232166 -34.547924 86.632469 -2.016287 31.683065 -8.534408 -12.637552 39.115089 -1.834763 17.785765 -0.461660 47.120129 -4.055869 -6.893648 -23.246067 -5.221598 -4.683719 -4.158049 -20.211628 23.892237 43.072681 4.387636 6.444296 -25.941248 -2.218768 1.138675 
1.386420 48.714016 -7.007571 -8.111006 0.043463 -9.101845 28.637873 1.103446 -0.053957 -24.076950 0.996703 -0.288348 0.000000 0.000000 0.000000 -17.630486 -3.194339 1.759706 17.357605 8.215147 3.438177 2.424333 -4.683778 1.783845 8.590611 -58.704014 -15.353186 -86.695518 2.131735 31.832899 8.524705 12.647240 -21.575575 -2.738486 -1.140572 2.095526 -19.688604 52.005310 -32.495522 86.505531 -1.758591 31.315874 -8.534408 -12.637552 39.456890 -1.239255 17.641676 -0.448230 45.250107 -4.204899 -6.706664 -21.234125 -4.467731 -4.367076 -3.978725 -20.118494 24.553490 41.819553 4.495128 6.288352 -23.570929 -3.241353 1.083731 
1.437527 49.302933 -6.993309 -7.788291 -0.039781 -9.290043 28.226973 1.251411 -0.037184 -24.458824 1.258246 -0.308868 0.000000 0.000000 0.000000 -18.058453 -2.838962 1.860926 18.001371 7.644728 3.701609 2.424333 -4.683778 1.783845 5.145025 -57.300671 -12.605573 -86.557312 1.858830 31.476170 8.524705 12.647240 -20.423233 -2.738486 -1.140572 2.095526 -17.097746 51.828796 -30.216764 86.403419 -1.540326 30.917435 -8.534408 -12.637552 39.876812 -0.653350 17.627710 -0.479140 43.297077 -4.397136 -6.486598 -18.953722 -3.867461 -4.127611 -3.856188 -19.872181 25.330072 40.526070 4.586685 6.150084 -21.257893 -4.621998 0.945477 
1.486256 49.894222 -6.970131 -7.514438 -0.087677 -9.465100 27.731724 1.401377 0.102711 -24.409842 1.220469 -0.294602 0.000000 0.000000 0.000000 -18.481434 -2.575323 1.894510 18.259912 7.397005 3.820673 2.424333 -4.683778 1.783845 2.212105 -56.047718 -10.402563 -86.436508 1.605072 31.070124 8.524705 12.647240 -19.339247 -2.738486 -1.140572 2.095526 -14.298307 51.510437 -28.335094 86.322052 -1.373394 30.496870 -8.534408 -12.637552 40.140484 -0.009226 17.581554 -0.616468 41.293911 -4.562743 -6.237720 -16.687525 -3.174106 -3.890305 -3.670467 -19.647409 26.052029 39.260063 4.684490 6.015555 -19.056595 -6.005280 0.861864 
1.532312 50.482845 -6.939230 -7.177095 0.064203 -9.487321 27.045382 1.409954 -0.028023 -24.302382 1.218471 -0.321499 0.000000 0.000000 0.000000 -18.710619 -2.411651 1.941831 18.399784 7.364967 3.980826 2.424333 -4.683778 1.783845 -0.637125 -54.652794 -8.424789 -86.337692 1.397483 30.583155 8.524705 12.647240 -18.050186 -2.738486 -1.140572 2.095526 -11.415850 51.201485 -26.531620 86.255157 -1.277931 30.042463 -8.534408 -12.637552 40.628761 0.469266 17.269629 -1.064291 39.298264 -4.692885 -6.031452 -14.379587 -2.135613 -3.590101 -3.602861 -19.638422 26.543488 38.001915 4.798124 5.845966 -16.792076 -7.555031 0.824966 
1.568859 51.053635 -6.918135 -6.832119 0.239260 -9.412274 26.406559 1.430048 -0.217668 -24.116837 1.234061 -0.377574 0.000000 0.000000 0.000000 -19.164492 -2.223230 1.988232 18.583138 7.221114 4.087166 2.424333 -4.683778 1.783845 -3.316655 -53.348885 -6.961093 -86.256210 1.268169 30.042870 8.524705 12.647240 -16.507212 -2.738486 -1.140572 2.095526 -8.641995 50.777653 -25.010498 86.188004 -1.274684 29.562473 -8.534408 -12.637552 41.458847 0.888420 16.963732 -1.680405 37.375854 -4.859711 -5.781727 -12.069285 -0.962784 -3.314946 -3.551739 -19.585560 26.928114 36.803810 4.876702 5.697725 -14.495065 -9.279286 0.849246 
1.608971 51.609272 -6.889610 -6.516005 0.283631 -9.311599 25.788328 1.605834 -0.356298 -23.970116 1.181598 -0.428858 0.000000 0.000000 0.000000 -19.550072 -2.037175 2.026911 18.831152 6.972475 4.200602 2.424333 -4.683778 1.783845 -5.925217 -52.040565 -5.701075 -86.172997 1.275955 29.444706 8.524705 12.647240 -15.100965 -2.738486 -1.140572 2.095526 -5.847110 50.360680 -23.574301 86.097977 -1.368298 29.007322 -8.534408 -12.637552 41.947121 1.279485 16.763914 -2.297707 35.502010 -4.981867 -5.557268 -9.837314 0.408004 -3.085987 -3.384742 -19.398170 27.164398 35.642166 4.964589 5.564194 -12.322752 -11.038893 0.980434 
